<svg id="Layer_1" data-name="Layer 1" xmlns="http://www.w3.org/2000/svg" viewBox="0 0 1440 288"><defs><style>.cls-1{fill:#8b1925;}.cls-2{fill:#8c1a26;}.cls-3{fill:#8c1a25;}.cls-4{fill:#fff;}.cls-5{fill:#8e1c28;}.cls-6{fill:#98313d;}.cls-7{fill:#8d1a27;}.cls-8{fill:#8d1b27;}.cls-9{fill:#8c1926;}.cls-10{fill:#8e1d29;}.cls-11{fill:#8e1e2a;}.cls-12{fill:#8e1d2a;}.cls-13{fill:#8f202c;}.cls-14{fill:#90202d;}.cls-15{fill:#962637;}.cls-16{fill:#8f1d2b;}.cls-17{fill:#90202c;}.cls-18{fill:#922530;}.cls-19{fill:#8f1e2b;}.cls-20{fill:#90212c;}.cls-21{fill:#922431;}.cls-22{fill:#8f1f2c;}.cls-23{fill:#912530;}.cls-24{fill:#d5a2ae;}.cls-25{fill:#c78292;}.cls-26{fill:#8d1b28;}</style></defs><path class="cls-1" d="M343.23,186c0,6.55,0,12.66,0,18.77,0,2.59.31,5.17.26,7.76s.81,4.45,3.68,4.85a2.09,2.09,0,0,1,1.75,1.34H334c4.74-2.94,4.74-2.94,4.74-8.4V178.94c0-.67,0-1.34,0-2,0-.91.22-1.84,1.13-2.14s1.31.62,1.81,1.16q13.53,14.51,27,29.05c1.08,1.17,2.14,2.36,3.55,3.92,0-4.77,0-8.93,0-13.1-.05-4.5-.35-9-.24-13.51.07-3.14-.62-5.3-4.18-5.5a1.05,1.05,0,0,1-.5-.28,4.17,4.17,0,0,1-.42-.5c.16-.18.33-.51.5-.51q5.6-.11,11.2-.13c.54,0,1.24-.1,1.38.67s-.49,1-1,1.12c-2.26.45-2.34,2.06-2.33,3.92,0,11.41.39,22.82-.25,34.21-.07,1.36.44,3.35-.93,3.89-1.16.45-2.13-1.33-3.1-2.19-9.52-8.54-17.71-18.33-26.21-27.82Z"/><path class="cls-1" d="M1139.8,186.22a23.08,23.08,0,0,0-.21,6.62c.2,6.23.55,12.45.64,18.68,0,3.07.41,5.59,4.15,6a2.34,2.34,0,0,1,1,.54c.11.09.1.34.2.72h-14.21c-.13-1,.47-1,.87-1.11,2.51-.58,3.27-2.21,3.25-4.65-.06-11.12,0-22.24,0-33.36,0-.67,0-1.34,0-2,0-1.08-.06-2.29,1.07-2.76s1.62.78,2.22,1.42q13.92,14.92,27.78,29.92l2.65,2.79c0-1.93,0-3.21,0-4.49-.14-7.57-.38-15.14-.41-22.71,0-2.82-.74-4.68-3.86-4.9-.56,0-1.11-.29-1.26-1.48h12.23c.4,0,.79.14.87.57.14.73-.37,1.05-1,1.17-2.39.47-2.43,2.18-2.43,4.14,0,11.4.39,22.81-.25,34.21-.07,1.28.37,3.18-.82,3.68s-2.17-1.25-3.12-2.11c-9.66-8.67-18-18.59-26.6-28.24C1141.76,187.93,1141.16,186.8,1139.8,186.22Z"/><path class="cls-1" d="M810.75,186.3c0,2.69-.06,5.33,0,8,.16,5.56.48,11.12.55,16.68,0,3.31.33,6.2,4.48,6.68a1,1,0,0,1,.91,1.14H802.56c-.13-.94.45-1,.86-1.12,2.47-.61,3.27-2.19,3.25-4.66-.08-11.31,0-22.63,0-33.94,0-.58,0-1.15,0-1.73,0-1,0-2,1.06-2.46s1.49.65,2,1.23q14.12,15.15,28.21,30.33c.62.67,1,1.6,2.37,2,0-1.89,0-3.66,0-5.44-.12-6.8-.36-13.61-.32-20.42,0-3.2-.6-5.5-4.3-5.77-.3,0-.58-.41-.84-.6.28-1.13,1.11-.74,1.68-.75,2.87-.06,5.75-.11,8.62,0,.94,0,2.43-.68,2.73.66s-1.25,1.18-2.06,1.51c-1.57.66-1.24,2-1.24,3.18,0,9.59,0,19.18-.06,28.77,0,2.68-.27,5.36-.47,8,0,.61.25,1.48-.6,1.74s-1.18-.5-1.66-.92a154.4,154.4,0,0,1-13.51-13.32c-5.16-5.68-10.22-11.44-15.35-17.15C812.39,187.31,812.05,186.42,810.75,186.3Z"/><path class="cls-1" d="M1240.87,218.81h-14.4a3.57,3.57,0,0,1,0-.71c3.79-.87,4.33-3.5,4.28-6.93-.16-10.84-.06-21.67-.06-32.51a12.56,12.56,0,0,1,.06-2.3c.31-1.61,1-2.28,2.44-.82,1.72,1.81,3.48,3.58,5.17,5.41q11.91,12.88,23.79,25.8l1.94,2.07c0-5.38,0-10.32,0-15.26,0-3.74-.32-7.48-.23-11.21.08-3.07-.48-5.36-4.12-5.52a1,1,0,0,1-.49-.28,2.54,2.54,0,0,1-.37-.43.63.63,0,0,1,.69-.7c3.64,0,7.29,0,10.93,0,.58,0,1.28,0,1.43.65s-.48,1-1.06,1.12c-2.27.44-2.33,2.08-2.32,3.93.08,11.12.44,22.24-.27,33.36-.06,1,0,1.92-.13,2.87-.07.73.1,1.69-.76,2s-1.2-.49-1.67-.93c-2.6-2.42-5.23-4.8-7.73-7.32-6.9-6.94-13.3-14.34-19.78-21.67-.94-1.06-1.91-2.11-2.91-3.22-.91,1-.57,2.07-.55,3,.19,8,.47,16.1.68,24.16,0,2,.82,3.28,2.81,3.77A3.13,3.13,0,0,1,1240.87,218.81Z"/><path class="cls-1" d="M954.55,208.91c0-4.41,0-8.2,0-12,0-4.89-.2-9.78-.2-14.68,0-2.87-.44-5.22-4-5.37-.45,0-.88-.36-1.13-1.43,4.23,0,8.36,0,12.5,0a.67.67,0,0,1,.68.75,1,1,0,0,1-1,.9c-2.45.44-2.39,2.19-2.4,4.12,0,11.89.48,23.79-.48,35.68-.07.81.34,1.94-.62,2.33s-1.51-.63-2.12-1.17c-10.27-9.16-19.13-19.66-28.26-29.9l-2.42-2.67c0,1.8,0,3,0,4.16.2,7.67.44,15.34.62,23,.06,2.35.75,4.14,3.36,4.57a3,3,0,0,1,2.28,1.54H916.84c0-.31,0-.77.1-.79,3.74-.76,4.28-3.3,4.23-6.66-.15-11.13-.06-22.26,0-33.39,0-1.11-.39-2.54.91-3.08s1.75.91,2.43,1.61c9.62,9.92,19,20.08,28.22,30.36Z"/><path class="cls-1" d="M852.44,175h14.49l.63.62c-5,.83-4.51,4.31-4.49,7.58s0,6.28,0,8.44c4.16-3.68,8.61-7.54,13-11.52a3.3,3.3,0,0,0,1.31-3.07c-.74-2.62.86-2.29,2.45-2.2,3.17.18,6.37-.4,9.61.35-9.17,3.37-14.06,11.49-20.47,17.88-.76.76-1.17,1.3-.23,2.34,5.36,5.88,10.46,12,16.58,17.16,2.55,2.14,5.14,4.35,8.66,4.82.53.07,1,.33,1,.83s-.53.71-1,.92a10,10,0,0,1-9.36-.54c-4.48-2.38-8-5.88-11.38-9.58s-6.45-7.22-10.08-11.29c0,6,0,11.3,0,16.62,0,1.75.8,2.91,2.74,3a2.6,2.6,0,0,1,2.46,1.43H853c4.77-1.08,3.76-4.82,3.76-8,0-9.69,0-19.38,0-29.06,0-2.78.06-5.28-3.67-5.43C852.74,176.16,852.35,175.7,852.44,175Z"/><path class="cls-1" d="M994.5,197h15.62c-4,2.76-4,2.76-4,7.55,0,3.26-.06,6.52,0,9.78a2.82,2.82,0,0,1-1.5,2.8c-6.68,4.13-22.52,3-29-2.15a25,25,0,0,1-8-26.43c2.85-9,10.95-14.5,22-14.86,5.2-.17,10.3.81,15.42,1.56.75.11,1.3.28,1.31,1.16a26.16,26.16,0,0,1-1,8.8c-.16.47-.4.94-1,.92s-.78-.49-.86-1c-1.22-8-10.74-10.39-18.68-7.89-8.81,2.78-13.7,11.1-11.89,20.9,1.69,9.2,8.5,18.71,21,18a15.26,15.26,0,0,0,3.66-.69,2.89,2.89,0,0,0,2.22-3.21,85.74,85.74,0,0,1,0-9.21c.18-2.72-.63-4.45-3.48-4.92C996,198,995.62,197.67,994.5,197Z"/><path class="cls-1" d="M521.87,175.41c-3.88,2-3.88,2-3.88,6.53,0,7.95-.16,15.91,0,23.87.14,5.9,4.15,9.85,10.12,10.56s11.17-2.55,12.79-7.92a18.3,18.3,0,0,0,.59-5.42c-.08-7.57-.19-15.14-.18-22.72,0-2.4-.31-4.21-3.33-4-.56,0-1.09-.32-1.44-1.28H549.7c0,.27,0,.59,0,.61-3.22,1-3.49,3.38-3.42,6.29.17,6.71.09,13.43,0,20.14-.07,9-5.5,16.12-13.23,17.52a18.42,18.42,0,0,1-20.67-11.77,17.61,17.61,0,0,1-.8-6.24c0-6.9,0-13.81,0-20.71,0-2.39-.16-4.51-3.37-4.42a1.15,1.15,0,0,1-1.3-.9c-.07-.54.5-.71,1-.71,4.32,0,8.63,0,12.94,0C521.2,174.86,521.49,175.18,521.87,175.41Z"/><path class="cls-1" d="M1276.19,196.42a21.3,21.3,0,0,1,1.5-8c4.41-11.11,10.34-15.2,25.26-14.61,3.63.14,7.22,1,10.83,1.39,1.15.12,1.83.39,1.67,1.68-.36,3-.69,6.09-1,9.13-.06.46-.06,1-.68,1.12s-.75-.46-.94-.89c-3.66-8.12-7-10.39-14.66-9.83A16.39,16.39,0,0,0,1283,188.85c-3.31,12.09,4.34,25.28,16,27.64,6.81,1.38,10.91-.54,14.33-6.62.42-.75.56-2.18,1.87-1.71.91.33.55,1.51.6,2.33a7.81,7.81,0,0,1-.15,1.43c-.67,5.59-.93,6-6.42,6.74s-11,1.43-16.59.21C1282.54,216.66,1276,208,1276.19,196.42Z"/><path class="cls-1" d="M615.57,182.76c-2.7-4.95-5.38-6.1-11-5-1,.18-1.25.6-1.24,1.5,0,4.32.06,8.63,0,13,0,1.36.56,1.6,1.71,1.52,3.4-.21,6.9.64,10.13-1.2,1.24-.7,1.76-.16,1.57,1.23-.28,2.09-.51,4.18-.74,6.28-.06.58,0,1.28-.72,1.38s-1-.52-1.2-1.06c-.54-1.17-.54-2.81-2.22-3.06a31.85,31.85,0,0,0-7.74-.37c-1,.1-.71,1-.72,1.61,0,4.41,0,8.83,0,13.24a3.12,3.12,0,0,0,.93,2.3c3.45,3.73,10.47,2.75,12.71-1.78.3-.61.18-1.83,1.25-1.48s.28,1.31.16,2c-1,6.23-1,6.23-7.43,6.23-4.7,0-9.4,0-14.1,0a6.35,6.35,0,0,1-4.14-1c5-.42,4.38-3.83,4.38-6.88,0-9.88-.08-19.76.06-29.64,0-2.82-.35-4.89-3.57-5.35-.41-.06-.78-.48-1.14-.72.28-1.12,1.11-.72,1.67-.74,7.46-.26,14.94.48,22.38-.42.7-.08,1.24.18,1.08.89C617,177.61,617.19,180.35,615.57,182.76Z"/><path class="cls-1" d="M1318.66,218c4.75-.67,4.7-3.64,4.7-6.57,0-10-.07-20,0-29.92,0-2.76-.24-5-3.55-5.42-.47-.06-1.12-.32-1.25-1.51,1.77,0,3.52,0,5.26,0,6.22-.19,12.45.46,18.65-.37.94-.13,1.31.17,1.17,1q-.54,3.25-1.23,6.48a1.21,1.21,0,0,1-.72.79c-.2,0-.72-.39-.76-.66-.72-4.64-4.28-4.23-7.53-4.18-4,.05-4,.14-4,4.05,0,3.35.08,6.71,0,10.07-.05,1.52.46,2,2,1.92,3.3-.24,6.7.6,9.84-1.18,1.35-.76,2-.17,1.7,1.37-.33,2.08-.58,4.17-.88,6.26-.06.44.08,1.05-.53,1.18s-1-.38-1.26-.91c-.6-1.12-.48-2.83-2.16-3.12a30.82,30.82,0,0,0-7.73-.42c-.93.08-.81.93-.81,1.58,0,4.51,0,9,0,13.52a3.4,3.4,0,0,0,1.74,2.81,7.89,7.89,0,0,0,12-3.06,10.12,10.12,0,0,1,.8-1.22c.61,1.27.2,7.23-.57,7.87a2.53,2.53,0,0,1-1.56.57c-7.19-.06-14.38.35-21.56-.21A9.82,9.82,0,0,1,1318.66,218Z"/><path class="cls-1" d="M1099.53,218.49a70.59,70.59,0,0,1-15,.11c1.27-1.6,3.71-1,4-2.94a34.26,34.26,0,0,0,.19-4.87c0-9.87-.1-19.74.07-29.6,0-2.8-.5-4.64-3.54-5.08-.41-.06-.78-.46-1.16-.7.42-1.22,1.33-.7,2-.7,6.61,0,13.22.08,19.83,0,4.45,0,4.46-.13,3.75,4.45a13,13,0,0,1-.39,2c-.24.7-.46,1.63-1.4,1.59s-.68-1-.78-1.58a3.61,3.61,0,0,0-3.23-3.16c-2.61-.5-5.13.2-7.69.43-1.26.12-1.18,1-1.18,1.85,0,3.93.07,7.86,0,11.78,0,1.5.59,1.86,1.86,1.67,3.5-.52,7.23,1.17,10.56-1.27.9-.66,1.07.38,1,1.05q-.39,3.57-.89,7.12c-.06.46-.26,1-.82,1s-.72-.49-.74-1c-.2-3.45-2.63-3.84-5.29-3.8-5.65.09-5.65.12-5.65,5.81,0,3,0,5.94,0,8.92C1095,216.31,1095.3,216.67,1099.53,218.49Z"/><path class="cls-1" d="M698.65,218.5a59.53,59.53,0,0,1-15-.17c5.3-.84,4.23-4.68,4.24-7.91,0-9.59-.06-19.18.06-28.77,0-2.89-.28-5.14-3.71-5.59a.88.88,0,0,1-.86-1c.74-.75,1.74-.29,2.61-.32,7.17-.22,14.36.6,21.52-.41.81-.12,1.56.12,1.46.86-.28,2.27.09,4.64-1,6.78-.22.44-.53.84-1.08.8s-.52-.66-.66-1.07c-1.08-3.25-2.28-4.07-5.66-3.89-6.45.33-6.45.33-6.45,6.71v.86c0,9.36,0,9.36,9.53,8.36a4.61,4.61,0,0,0,1.12-.19c3-1.18,3-1.18,2.54,2.22-.23,1.61-.53,3.21-.84,4.81-.09.42,0,1-.69,1.09s-.81-.45-.84-.91c-.23-3.86-3-4-5.79-3.82-5,.25-5,.29-5,5.28,0,3.07,0,6.14,0,9.21C694.17,216.46,694.22,216.52,698.65,218.5Z"/><path class="cls-1" d="M420.93,218c4.91,0,4.54-3,4.53-6,0-10.44-.07-20.89,0-31.33,0-2-.48-2.74-2.52-2.53a30.77,30.77,0,0,1-5.17,0,5.88,5.88,0,0,0-5.79,2.95c-.35.55-.5,1.72-1.57,1.2-.85-.41-.6-1.39-.45-2.08.38-1.77.9-3.51,1.38-5.27.22-.82.54-1.39,1.61-.95,3.48,1.45,7.17,1.08,10.78,1,7.17-.18,14.37.65,21.51-.54.76-.12,1.39-.08,1.42.87a22.8,22.8,0,0,1-.56,6.84c-.09.32-.39.75-.66.8a1,1,0,0,1-.83-.55c-1.26-4.69-5-4.37-8.57-4.16-4.34.25-4.33.32-4.33,4.75v27.31c0,.86,0,1.73,0,2.58.2,2.34.27,4.76,3.69,4.55.58,0,1.49.2,1.3,1.12-.15.75-.95.41-1.46.42-4.55,0-9.1,0-13.65,0C421.41,218.7,421.17,218.37,420.93,218Z"/><path class="cls-1" d="M563.84,218.15c5.31-.17,4.44-3.66,4.45-6.63,0-10.26,0-20.51.05-30.77,0-1.92-.36-2.81-2.48-2.59a29.75,29.75,0,0,1-5.17,0,5.88,5.88,0,0,0-5.79,3c-.34.55-.53,1.69-1.55,1.2-.81-.39-.65-1.35-.48-2.08.42-1.76,1-3.5,1.41-5.26.22-.89.53-1.39,1.56-1,4,1.59,8.14,1.06,12.23,1,6.69-.12,13.41.65,20.08-.52.74-.13,1.4-.14,1.39.84,0,2.29.19,4.61-.52,6.84a1.49,1.49,0,0,1-.64.84c-.42.19-.74-.23-.83-.57-1.29-4.63-5-4.38-8.58-4.17-4.38.26-4.38.32-4.38,4.79q0,13.65,0,27.31c0,1.24.25,2.48.26,3.72,0,2.19.87,3.44,3.25,3.33.65,0,1.55.19,1.54,1,0,1-1,.62-1.57.62-4.51,0-9,0-13.53,0Z"/><path class="cls-1" d="M494.64,218.85h-15c4.56-1,3.64-4.59,3.65-7.6,0-10.16,0-20.32.05-30.48,0-1.93-.38-2.83-2.49-2.6a26.62,26.62,0,0,1-4.89,0,6,6,0,0,0-6.22,3.21c-.28.48-.52,1.2-1.19,1-.85-.19-.78-1.06-.66-1.67.41-2.06.91-4.1,1.42-6.13.22-.86.86-.87,1.58-.58,3.41,1.38,7,1.06,10.51,1,7.18-.17,14.38.64,21.52-.51,1.37-.22,1.73.3,1.67,1.5s-.05,2.11-.17,3.16c-.15,1.31.3,3.32-.91,3.7-1.53.47-1.14-1.76-1.91-2.62-1.57-1.76-3.61-2.06-5.74-2.08-6.26,0-6.28,0-6.26,6.19,0,9.58.11,19.16.14,28.74,0,2.59.57,4.59,3.8,4.4C494,217.47,494.62,217.8,494.64,218.85Z"/><path class="cls-1" d="M386,207.9a5,5,0,0,1,.41,1.31c-.18,3.46,1.54,5.69,4.65,6.79a8.38,8.38,0,0,0,9-1.93c2.19-2.08,2.48-4.92.88-7.89-1.79-3.35-4.66-5.8-7.29-8.44s-5.58-5.27-7.51-8.65c-2.8-4.94-1.86-9.36,2.89-12.42A19.9,19.9,0,0,1,404.44,174c.9.19,1.72.34,1.74,1.49a23.7,23.7,0,0,1-.53,6.56c-.13.5-.37,1.18-1.08,1.18s-.81-.7-.87-1.24c-.35-3.4-2.47-5.09-5.61-5.55a6.15,6.15,0,0,0-6.6,3.1c-1.63,2.8-1.14,5.54.67,8.07s4.28,4.38,6.58,6.4c2.53,2.2,5.11,4.36,6.87,7.28,2.64,4.4,2.35,8.93-1.1,12.7a16.48,16.48,0,0,1-14.39,5.68c-5.07-.52-6.81-3.09-5.69-8.05C384.69,210.49,384.59,209.17,386,207.9Z"/><path class="cls-2" d="M913.82,219a126.31,126.31,0,0,0-15.16-.16c-.59,0-1.31-.09-1.33-.74s.69-.78,1.3-.78c2.85,0,3.55-1.91,3.57-4.2.06-11.3,0-22.59.09-33.89,0-2.8-2.38-2.78-4-4.11H912.4c-5,1.19-3.85,5.16-3.86,8.54q0,13.22,0,26.43a30.12,30.12,0,0,0,.27,3.41c.25,2.23.73,4.22,3.71,3.91C913,217.38,913.56,217.81,913.82,219Z"/><path class="cls-2" d="M1128.34,219a149.5,149.5,0,0,0-15.38-.15c-.47,0-1.06,0-1.17-.6s.38-.86.88-.86c4.2,0,4.09-3.1,4.12-5.84.12-7.95,0-15.91,0-23.87v-4.32c0-5.5,0-5.5-4.78-8.36a132.6,132.6,0,0,1,15.44-.12c-1.54,1.71-4,1.22-4.28,3.3a44.57,44.57,0,0,0-.13,5.17q0,13.51,0,27a24.3,24.3,0,0,0,.23,3.72c.29,1.89.8,3.62,3.37,3.29C1127.33,217.31,1128,217.64,1128.34,219Z"/><path class="cls-3" d="M449.17,175h15.05c-4.32,2.76-4.32,2.76-4.32,8.1q0,13.65,0,27.32a21.79,21.79,0,0,0,.19,3.43c.32,1.94.72,3.86,3.47,3.54.61-.08,1.32.23,1.52,1.59-5.58-.34-11.06-.31-17.05-.18.63-.85.75-1.21,1-1.26,4.2-1.09,4.62-1.58,4.64-6,0-9.3,0-18.6,0-27.89C453.64,178.05,453.64,178.05,449.17,175Z"/><path class="cls-2" d="M331.58,219a144,144,0,0,0-15.37-.17c-.47,0-1.09,0-1.18-.58-.13-.78.55-.92,1.12-.89,2.87.12,3.75-1.84,3.78-4.06.12-11.4.08-22.81.11-34.21,0-2.74-2.71-2.48-4.7-4.06h15.28c-1.45,1.52-3.91,1.07-4.19,3.14a37.74,37.74,0,0,0-.12,4.88q0,13.65,0,27.31a24.3,24.3,0,0,0,.23,3.72c.3,1.87.79,3.62,3.36,3.3C330.55,217.31,331.22,217.63,331.58,219Z"/><path class="cls-1" d="M660.85,173.31c-11.63-.1-24.72,5.73-24.92,22.61-.79,11.36,9.78,23.19,21.39,24s23.42-8.75,24.24-19.56C682.67,185.71,673.71,173.42,660.85,173.31Zm12.6,34.63c-2.55,5.89-7.4,8.85-16.24,8.9-2.77,0-6.83-2.17-9.81-6.08a24.24,24.24,0,0,1-3.72-23.91,15.48,15.48,0,0,1,27-3.93C676.35,190.67,677.22,199.2,673.45,207.94Z"/><path class="cls-1" d="M1208.86,218.73H1224c-5.7-2.81-5.81-2.77-8.11-8.54-4.28-10.73-8.4-21.53-12.63-32.29-.59-1.5-.91-3.25-2.75-4.17-.33.78-.61,1.37-.83,2q-6.27,17.39-12.52,34.78c-1.25,3.5-2.47,7-6.61,8.36h13.19c-3.8-2.15-3.81-2.15-2.64-6.37.43-1.57.88-3.13,1.39-4.67,1.9-5.68,1.91-5.68,8-5.68a27.75,27.75,0,0,0,3.16,0c1.78-.2,2.74.37,3.33,2.2,1.07,3.37,2.36,6.67,3.75,9.91C1211.5,216.06,1211.8,217.54,1208.86,218.73Zm-13.23-19.93,4.5-14.1c1.68,5,3.18,9.4,4.77,14.1Z"/><path class="cls-1" d="M747.23,193.76a34.63,34.63,0,0,0,3.7-5c2.59-5.11,1.12-9.94-3.93-12.63a14.09,14.09,0,0,0-4.63-1.47c-5.42-.79-10.79,1-16.19,0-.12,1.22.57,1.63,1.17,1.65,3.12.07,3.32,2,3.29,4.49-.09,9.68,0,19.37,0,29.06,0,3.19,1.11,6.9-4.19,8.08,3.65,1.14,18.4,1.18,20.94.31,7.82-2.67,11.38-11.57,7.37-18.4C753,196.88,750.3,195.16,747.23,193.76Zm-7.68-16.87c3.79.13,6.33,2.62,6.84,7s-1.47,7.77-5.22,8.6c-4.2.93-4.27.87-4.27-3.38v-4.29a49.11,49.11,0,0,0,0-5.15C736.64,177.55,737.41,176.82,739.55,176.89Zm10.52,33.44a7.55,7.55,0,0,1-8,5.92c-3.38-.29-5.14-2.2-5.17-5.59,0-2.11,0-4.22,0-6.32s.08-4.22,0-6.32c-.08-1.52.26-2.13,2-2.11A11.85,11.85,0,0,1,750.07,210.33Z"/><path class="cls-1" d="M791.43,209.12c-4-10.21-8-20.48-12-30.72-.64-1.65-1.06-3.46-2.62-4.6-1,.6-1.08,1.61-1.39,2.48-3.83,10.61-7.61,21.24-11.48,31.84-1.52,4.15-2.16,9-7.33,10.75h12.6c-4.44-1.27-2.81-4.19-2-6.86.17-.55.3-1.11.47-1.66,2.56-8.21,2.56-8.21,11-8.21a7.36,7.36,0,0,0,1.15,0c1.68-.26,2.56.4,3.1,2.07,1,3.09,2.28,6.08,3.39,9.14.68,1.87,2.2,3.83-.82,5.43h13.62l.42-.67C793.88,217.57,793,213,791.43,209.12ZM773.19,198.9c-1.11,0-1.59-.21-1.18-1.42,1.35-4,2.66-8.08,4.21-12.79,1.69,5.12,3.15,9.51,4.7,14.19C778.11,198.88,775.65,198.84,773.19,198.9Z"/><path class="cls-1" d="M1056.06,208.88c-1.12-1-1.45-1.68-.64-3.07a37.83,37.83,0,0,0,3.07-8.31c.34-1.13.18-1.84-1-2.21-2.37-.74-4.74-1.34-7.54.05,4.42,1.9,5,3.41,3.44,7.5-.18.45-.41.87-.58,1.32-.48,1.3-1.09,1.23-2,.33-3.93-3.79-8-7.4-11.23-11.89a14.67,14.67,0,0,1-2.82-5.6c-.68-3.45.9-6.24,3.94-6.85a5.9,5.9,0,0,1,6.78,4.73c.16.74-.38,1.8,1,2.3,1.58-2.53,1.16-5.27.84-8-.09-.75-.85-1-1.5-1.15-4.92-1.54-9.49-1.08-13.39,2.55-3.15,2.92-4.13,7.47-1.94,10.69,1.25,1.84,1.08,2.79-.52,4.06a13,13,0,0,0-2.46,2.8c-4.37,6.3-2,13.93,5.14,16.72a12.88,12.88,0,0,0,12.62-1.29c2.79-2,4.65-2,7.34.13,3.61,2.81,7.84,2,12,.87A27,27,0,0,1,1056.06,208.88Zm-8.43,1.8a8.91,8.91,0,0,1-10.34,1.35,9.8,9.8,0,0,1-4.85-10.43,10.88,10.88,0,0,1,3-5.66,86.15,86.15,0,0,0,12.19,12.39C1048.77,209.24,1048.67,209.79,1047.63,210.68Z"/><path class="cls-1" d="M321.49,91.26q7.62-3.3,18.32-3.3t18.45,4.13Q366,96.2,366,104.42q0,9.08-8.25,13.62a36.93,36.93,0,0,1-18.14,4.55q-9.89,0-16.48-3.69t-6.6-12.47q0-5.12,3.3-7.65t10.88-2.57a24.8,24.8,0,0,1,9.07,1.6c2.75,1.06,4.12,2.81,4.12,5.22s-1.56,4.23-4.7,5.41-6.82,1-11.06-.49q-3.93-1.55-4-5.15-2.64,0-2.64,3.63,0,2,3.11,4t9.75,2q8.89,0,14.51-2.05c3.74-1.38,5.6-3.45,5.6-6.2,0-3.73-2.33-6.53-7-8.37a37.3,37.3,0,0,0-14-2.81,42.37,42.37,0,0,0-10.57,1,26.5,26.5,0,0,0-6.38,2.64V83.35q0-2.28,5.21-6.27t8.11-4c1.94,0,4.42,1,7.46,3s5,3,6.06,3,2.74-1,5.12-3,4.26-3,5.67-3,3.6.82,6.66,2.47a18,18,0,0,0,8.47,2.47Q365.75,87,361.55,87a18.35,18.35,0,0,1-8.09-2.31q-4.57-2.31-5.89-2.31T343,84.93c-2.14,1.72-3.9,2.57-5.29,2.57s-3.39-.73-6-2.21-4.28-2.21-5.14-2.21a6.27,6.27,0,0,0-3.43,1.65Q321.05,86.38,321.49,91.26Z"/><path class="cls-1" d="M342,46.74a19.37,19.37,0,0,1,13.19,4.95,24,24,0,0,1,7.55,13.19q0,1.65-5.64,1.65a91,91,0,0,0-15.66-1.65,36.84,36.84,0,0,0-10.66,1.65q-3.88,0-5.73-2.18a6.41,6.41,0,0,1-1.88-4.18q0-5.19,4.71-9.3T342,46.74Zm-8.78,13.89a47.81,47.81,0,0,1,8.22-.7,73.72,73.72,0,0,1,14.7,1.72q-.75-2.41-4.58-4.53A19.32,19.32,0,0,0,342,55a11.06,11.06,0,0,0-6.48,1.66A4.82,4.82,0,0,0,333.19,60.63Z"/><path class="cls-1" d="M394.83,111.71q2.81,0,7.93-4.78a16.7,16.7,0,0,1,11.72-4.79,11.22,11.22,0,0,1,7.5,2.92,8.94,8.94,0,0,1,3.38,7,10.62,10.62,0,0,1-2.88,7.3,9.07,9.07,0,0,1-7,3.22c-2.75,0-4.81-.55-6.2-1.65a6,6,0,0,1-2-5c0-2.19.55-3.51,1.65-3.95a6.68,6.68,0,0,1,4.94-1.65,1.46,1.46,0,0,0,1.65,1.65c1.1,0,1.65-.5,1.65-1.49q0-2.14-4.95-2.14-4.29,0-8.08,7.09t-12.69,7.09a16.58,16.58,0,0,1-10.72-3.89q-4.79-3.86-4.78-8.25V106.1h3.3a26.84,26.84,0,0,0,9.72-1.4q3.46-1.4,3.47-3.63t-5.58-1.89a46.08,46.08,0,0,0-10.91,2V85.79a28.16,28.16,0,0,1,9.38-8.71q6.42-4,17-4a26.3,26.3,0,0,1,16.35,5.11q6.76,5.1,6.76,11.11c0,2.24-1.08,4.61-3.26,7.09s-5.33,3.73-9.47,3.73q-10,0-10-6.76t6.3-6.76c2.86,0,4.83.73,5.93,2.27-.19,1.69.69,2.56,2.66,2.61s2.95-.54,2.95-1.75q0-2.2-5.34-4.32a34.56,34.56,0,0,0-12.73-2.11q-9.6,0-14,1.76a41.78,41.78,0,0,0-7.47,3.81,19.4,19.4,0,0,1,11.66.92q5.08,2.22,5.09,9.07,0,5.88-7.22,10.65A5.77,5.77,0,0,0,394.83,111.71Z"/><path class="cls-1" d="M453.39,134.13a12.25,12.25,0,0,1-6,8.51q-5,3-13.52,3t-13.48-2.9a9.35,9.35,0,0,1-4.95-8.64q0-4.95,2.47-7.42c1.65-1.65,4.13-2.47,7.42-2.47a12.27,12.27,0,0,1,6.2,1.25,4,4,0,0,1,2.05,3.7,4.59,4.59,0,0,1-1.45,3.69,6.49,6.49,0,0,1-4.32,1.25,5.61,5.61,0,0,1-4.13-1.65,1.65,1.65,0,1,0-3.29,0q0,2.47,3.69,3.7a33.82,33.82,0,0,0,10.32,1.25q6.6,0,10.32-2.47a8.33,8.33,0,0,0,3.7-7.42v-25c-.14-1.12-1.56-2-4.29-2.59s-6.24-.2-10.55,1.21V83.88q0-2.5,6.2-6.63a23.26,23.26,0,0,1,13.12-4.12,39.5,39.5,0,0,1,16.89,3.72q8,3.74,8,7.16v32a6.84,6.84,0,0,1-2,4.29,5.94,5.94,0,0,1-4.62,2.31q-5.31,0-9.23-5.08t-4-8.77q0-2.34,8.24-4.62t8.25-7.68q0-3.66-9.2-8.38t-14.18-4.68a23.94,23.94,0,0,0-8.84,1.45,9,9,0,0,0-5.34,4.78,15.46,15.46,0,0,1,10.29-.1c3,1.15,5.09,2.83,6.16,5Zm21.11-26.38v-3.86c-1.3,1.21-2.19,2-2.69,2.44s-.52,1-.06,1.75a2,2,0,0,0,1.71,1.12C474.15,109.2,474.5,108.72,474.5,107.75Z"/><path class="cls-1" d="M554.63,102.77a18.28,18.28,0,0,1-6.26,14.2q-6.27,5.63-16.82,5.62a24.07,24.07,0,0,1-13-3.41q-5.44-3.42-3.56-5.92l6.13-7.36a15.32,15.32,0,0,0-6.77-6.1,20.88,20.88,0,0,0-8.92-2q-12.76,0-12.76,8,0,7.26,6.53,7.26c4.33,0,6.72-.81,7.18-2.41s.07-2.28-1.12-2.08q-1.08,2.5-5.69,2.51c-3.06,0-4.6-1.82-4.6-5.44s2.47-5.44,7.39-5.44,7.35,3.07,7.29,9.23q-.11,13.18-10.36,13.19a10.16,10.16,0,0,1-8.17-4.24,15.57,15.57,0,0,1-3.4-10.07q0-13.09,7.91-17.91c-3.07-2.66-5.64-4-7.68-3.89a21.25,21.25,0,0,1,8-10.06c3.43-2.2,5.62-3.29,6.56-3.29s3.09.74,6.37,2.24a21.21,21.21,0,0,0,8.54,2.24q-2.8,8.67-6.52,8.69a16.2,16.2,0,0,1-6.69-1.3,17.1,17.1,0,0,0-4.93-1.52,4.88,4.88,0,0,0-3.79,1.45q2.07.5,4.65,3.53a28.22,28.22,0,0,1,7.38-.89A31.07,31.07,0,0,1,520.65,90q5.29,2.47,8.79,9.57l-5,7.68q1.76,4.74,10.42,4.75,6.76,0,10.8-2a6.8,6.8,0,0,0,4-6.6c0-1.21-1.12-2.33-3.38-3.38s-6.84-.68-13.76,1.08V83.88q0-2.5,7.19-6.63a28.74,28.74,0,0,1,14.44-4.12,39.45,39.45,0,0,1,16.88,3.72q8,3.74,8,7.16v32a6.84,6.84,0,0,1-2,4.29,5.9,5.9,0,0,1-4.61,2.31q-5.31,0-9.23-5.08t-4-8.77q0-2.34,8.24-4.62t8.25-7.68q0-3.66-9.2-8.38t-16.16-4.71a21.31,21.31,0,0,0-8.23,1.48,16.06,16.06,0,0,0-6.28,4.78q9.72-2.64,14.24,1.16T554.63,102.77Zm21.11,5v-3.86c-1.3,1.21-2.2,2-2.69,2.44s-.52,1-.07,1.75a2,2,0,0,0,1.72,1.12C575.39,109.2,575.74,108.72,575.74,107.75Z"/><path class="cls-1" d="M504,137.43q0-5.77,3.63-8.64t10.88-2.9a29.78,29.78,0,0,1,12.83,2.77,22.09,22.09,0,0,1,9.43,8.27q4.13,5.44,6.1,5.45a7.47,7.47,0,0,0,5-1.65,4.41,4.41,0,0,1-5,4.94,19.33,19.33,0,0,1-7.88-1.51,15.11,15.11,0,0,1-5.8-4.59,18.45,18.45,0,0,0-6.9-5.31,19.12,19.12,0,0,0-7.78-1.78q-5.61,0-8.41,1.26t-2.8,3.69q0,4,2.64,4,2.31,0,2.31-4a9.53,9.53,0,0,1,4.94,1,3.4,3.4,0,0,1,1.65,3.1,3.77,3.77,0,0,1-1.25,3.1,5.66,5.66,0,0,1-3.69,1c-3.3,0-5.78-.68-7.42-2S504,140.18,504,137.43Z"/><path class="cls-1" d="M608.71,107.75V118c-2.64,3.08-4.83,4.62-6.59,4.62q-5.31,0-9.24-5.08t-4-9.76a15.12,15.12,0,0,1,11-5h4.52a5.31,5.31,0,0,0-2.77-2.73q-3.72-1.56-12.79,1.09V85.79a28.06,28.06,0,0,1,9.38-8.71q6.41-4,17-4a26.33,26.33,0,0,1,16.36,5.11q6.76,5.1,6.76,11.11a12.47,12.47,0,0,1-3.26,8.41q-3.27,3.72-9.47,3.72-10,0-10-6.76t6.3-6.76q4.27,0,5.93,2.28c-.2,1.69.69,2.56,2.66,2.61s3-.54,3-1.75q0-3.19-5.35-5.48a32.45,32.45,0,0,0-12.72-2.27q-9.6,0-14,1.76a41.11,41.11,0,0,0-7.47,3.81,13.66,13.66,0,0,1,8.61.59q4.55,1.72,6.16,5v8.24a8.65,8.65,0,0,1,5.28,1.72,12.39,12.39,0,0,1,3.63,4.62c.88,1.93,2.83,2.9,5.87,2.9a14.3,14.3,0,0,0,8.88-2.57q3.39-2.58,6-9.67,0,12-4.29,17.41c-2.85,3.59-6.21,5.38-10.05,5.38q-10.39,0-11.58-10.62Q611.35,107.76,608.71,107.75Zm-3.3,1.65v-1.65a5.78,5.78,0,0,0-2.68.43c-.5.29-.52.8-.07,1.55a2,2,0,0,0,1.72,1.12C605.07,110.85,605.41,110.37,605.41,109.4Z"/><path class="cls-1" d="M692.8,101.16a13.21,13.21,0,0,0-.29-2.87,6.68,6.68,0,0,1-.73,1.32,7.1,7.1,0,0,1-3.08,2.49,10.29,10.29,0,0,1-8.28,0,7,7,0,0,1-3.08-2.48,5.6,5.6,0,0,1,0-6.68,7.15,7.15,0,0,1,3.1-2.47,10.21,10.21,0,0,1,4.09-.86q13.19,0,13.19,11.55,0,9.36-4,15.4t-8.9,6q-4.95,0-11.35-5.51-6,5.51-10.65,5.51t-9.33-4.53a18.43,18.43,0,0,1-5.28-12q7.92,0,12.21-1.4t4.28-4q0-2.55-5.57-2.22a32.16,32.16,0,0,0-10.92,2.64V81q10-7.92,12.83-7.91c1.89,0,4.3,1,7.22,3s4.89,3,5.91,3,2.67-1,5-3,4.11-3,5.47-3,3.53.82,6.5,2.47a16.94,16.94,0,0,0,8.21,2.47Q695.94,87,691.88,87A19.71,19.71,0,0,1,684,85q-4.43-2-5.72-2c-.85,0-2.33.75-4.42,2.24s-3.8,2.24-5.14,2.24a11.18,11.18,0,0,1-5.28-1.94c-2.15-1.3-3.65-2-4.48-2a7.4,7.4,0,0,0-4.12,1.52,11.64,11.64,0,0,0-3.07,3.43q8.47-2,13.19.62,5.09,2.88,5.08,9.73,0,4.89-6.6,9.17a4.41,4.41,0,0,0,2.44,2.47,11,11,0,0,0,4.55.83q2.74,0,7.95-5.87c2.42,3.47,4.46,5.21,6.14,5.21s3.46-.86,5.39-2.59A8.91,8.91,0,0,0,692.8,101.16Z"/><path class="cls-1" d="M757.07,88.46c0,.31,0,.6,0,.89a12.43,12.43,0,0,1-3.27,8.41q-3.26,3.72-9.46,3.72-10,0-10-6.76t6.3-6.76q4.29,0,5.94,2.28c-.2,1.69.68,2.56,2.65,2.61s3-.54,3-1.75q0-3.19-5.34-5.48a32.47,32.47,0,0,0-12.73-2.27q-9.6,0-14,1.76a41.78,41.78,0,0,0-7.47,3.81,13.65,13.65,0,0,1,8.61.59q4.54,1.72,6.17,5v8.24a8.62,8.62,0,0,1,5.27,1.72,12.19,12.19,0,0,1,3.63,4.62q1.32,2.89,5.87,2.9a14.35,14.35,0,0,0,8.89-2.57q3.38-2.58,6-9.67,0,12-4.29,17.41t-10.06,5.38q-10.38,0-11.57-10.62-1.12-4.22-3.76-4.22V118q-4,4.62-6.6,4.62-5.31,0-9.23-5.08t-4-9.76a15.14,15.14,0,0,1,11.05-5h4.52a5.34,5.34,0,0,0-2.77-2.73q-3.74-1.56-12.8,1.09V85.79A28.26,28.26,0,0,1,717,77.08q6.42-4,17-4a26.33,26.33,0,0,1,16.36,5.11,17.48,17.48,0,0,1,6,7.09,22,22,0,0,1,3.9-7q4.15-5.17,7.61-5.17,5.45,0,11.38,4.05t5.94,7.49V116a6.84,6.84,0,0,1-2,4.29,5.94,5.94,0,0,1-4.62,2.31q-5.31,0-9.23-5.08t-4-8.77q0-2.34,8.24-4.62t8.25-7.68q0-4.32-6-7.88T765.09,85Q761.88,85,757.07,88.46ZM724.13,109.4v-1.65a5.83,5.83,0,0,0-2.69.43c-.49.29-.51.8-.06,1.55a2,2,0,0,0,1.71,1.12C723.78,110.85,724.13,110.37,724.13,109.4Zm56.67-.2c.69,0,1-.48,1-1.45v-3.86c-1.3,1.21-2.19,2-2.69,2.44s-.52,1-.07,1.75A2,2,0,0,0,780.8,109.2Z"/><path class="cls-1" d="M863.52,77.17q9,4,9,7.5V116a6.84,6.84,0,0,1-2,4.29,5.9,5.9,0,0,1-4.61,2.31q-5.31,0-9.24-5.08t-4-8.77q0-2.34,8.24-4.62t8.25-7.68q0-5.64-11.28-10.19T843.08,81.7q-3.63,0-8.38,2.74t-7.78,2.73q-3.13,0-10.08-2.93T808,81.3q-1.95,0-6.46,1.82c2.83.09,5.33,1.47,7.48,4.15l-5.47,2.11A14.47,14.47,0,0,0,795,87.83V81q15.3-7.92,21-7.91,4.26,0,11,3t8.31,3c1.08,0,3.37-1,6.89-3s6.28-3,8.35-3Q854.52,73.13,863.52,77.17Zm-60.2,13.15q5.49-2.68,14.63-2.69t26.54,2.64V118q-3.94,4.62-6.59,4.62-5.31,0-9.23-5.08t-4-9.76q6.85-.66,15.4-6-15.54-2.55-23.78-2.54t-13.14,2.63q-4.86,2.64-4.86,5.28c0,2.86,1.63,4.49,4.91,4.88a13.74,13.74,0,0,1,5-7,11.6,11.6,0,0,1,6.54-2.2,8.23,8.23,0,0,1,6.32,2.54,5.24,5.24,0,0,1,1.15,5.77q-1.2,3.24-3.36,3.24a4.5,4.5,0,0,1-3.48-1.44,4.3,4.3,0,0,0-3.32-1.42,2.51,2.51,0,0,0-2.59,1.9c-.39,1.71.31,3.28,2.12,4.68a7.29,7.29,0,0,1-7.09,4.52c-3.26,0-5.65-.91-7.19-2.74a10.66,10.66,0,0,1-2.31-7.12V98.52A18,18,0,0,1,803.32,90.32Zm35.12,17.76a2,2,0,0,0,1.72,1.12c.69,0,1-.48,1-1.45v-3.86c-1.3,1.21-2.2,2-2.69,2.44S838,107.33,838.44,108.08Zm29.75,1.12c.69,0,1-.48,1-1.45v-3.86c-1.3,1.21-2.2,2-2.69,2.44s-.52,1-.07,1.75A2,2,0,0,0,868.19,109.2Z"/><path class="cls-1" d="M902.2,118c-2.64,3.08-4.83,4.62-6.59,4.62q-5.31,0-9.24-5.08t-4-9.76q6.86-.66,15.4-6H898a9.34,9.34,0,0,0-2.77-1.65q-3.72-1.56-12.79,1.09V82.23c0-1.67,1.41-3.61,4.25-5.81s4.65-3.29,5.44-3.29,2.44.74,4.93,2.24a13.59,13.59,0,0,0,6.81,2.24q-2.67,9-5.46,9a11.28,11.28,0,0,1-5.12-1.14,5.83,5.83,0,0,0-4.44-.49c-1.4.44-2.42,2-3.08,4.61a15.46,15.46,0,0,1,10.29-.1q4.55,1.72,6.16,5Zm-4.33-8.77c.69,0,1-.48,1-1.45v-3.86c-1.29,1.21-2.19,2-2.68,2.44s-.52,1-.07,1.75A2,2,0,0,0,897.87,109.2Z"/><path class="cls-1" d="M931.88,107.75V118q-4,4.62-6.59,4.62-5.31,0-9.24-5.08t-4-9.76a15.16,15.16,0,0,1,11-5h4.52a5.34,5.34,0,0,0-2.77-2.73q-3.72-1.56-12.8,1.09V85.79a28.2,28.2,0,0,1,9.39-8.71q6.4-4,17-4a26.33,26.33,0,0,1,16.36,5.11q6.76,5.1,6.76,11.11a12.43,12.43,0,0,1-3.27,8.41q-3.25,3.72-9.46,3.72-10,0-10-6.76T945.1,88q4.29,0,5.94,2.28c-.2,1.69.69,2.56,2.66,2.61s2.95-.54,2.95-1.75q0-3.19-5.35-5.48a32.45,32.45,0,0,0-12.72-2.27q-9.6,0-14,1.76a41.11,41.11,0,0,0-7.47,3.81,13.62,13.62,0,0,1,8.6.59c3,1.15,5.09,2.83,6.17,5v8.24a8.65,8.65,0,0,1,5.28,1.72,12.27,12.27,0,0,1,3.62,4.62q1.32,2.89,5.87,2.9a14.31,14.31,0,0,0,8.89-2.57q3.38-2.58,6-9.67,0,12-4.29,17.41t-10.06,5.38q-10.38,0-11.57-10.62Q934.52,107.76,931.88,107.75Zm-3.3,1.65v-1.65a5.78,5.78,0,0,0-2.68.43c-.5.29-.52.8-.07,1.55a2,2,0,0,0,1.71,1.12C928.24,110.85,928.58,110.37,928.58,109.4Z"/><path class="cls-1" d="M937.52,46.74a19.37,19.37,0,0,1,13.19,4.95,24,24,0,0,1,7.55,13.19q0,1.65-5.64,1.65A90.91,90.91,0,0,0,937,64.88a36.82,36.82,0,0,0-10.65,1.65q-3.9,0-5.74-2.18a6.46,6.46,0,0,1-1.88-4.18q0-5.19,4.72-9.3T937.52,46.74Zm-8.77,13.89a47.69,47.69,0,0,1,8.21-.7,73.73,73.73,0,0,1,14.71,1.72q-.76-2.41-4.59-4.53A19.28,19.28,0,0,0,937.59,55a11.06,11.06,0,0,0-6.48,1.66A4.8,4.8,0,0,0,928.75,60.63Z"/><path class="cls-1" d="M976.46,88.92a19.4,19.4,0,0,1,11.66.92q5.1,2.22,5.1,9.07,0,4.89-6.6,9.17.63,1.65,4.42,2.8a35.68,35.68,0,0,0,10.09,1.16,19.87,19.87,0,0,0,11.51-3.25,29.22,29.22,0,0,0,8.28-9q0,10.73-6.6,16.76t-17.81,6q-12.19,0-18.3-4.53a16.13,16.13,0,0,1-6.76-12q7.92,0,12.2-1.42t4.29-3.61q0-2.22-5.57-1.89a46.07,46.07,0,0,0-10.92,2V85.79a28.26,28.26,0,0,1,9.38-8.71q6.42-4,17-4a26.33,26.33,0,0,1,16.36,5.11q6.75,5.1,6.76,11.11a12.43,12.43,0,0,1-3.27,8.41q-3.25,3.72-9.46,3.72-10,0-10-6.76t6.3-6.76q4.29,0,5.94,2.28c-.2,1.69.68,2.56,2.65,2.61s3-.54,3-1.75q0-3.19-5.34-5.48a32.47,32.47,0,0,0-12.73-2.27q-9.58,0-14,1.76A41.78,41.78,0,0,0,976.46,88.92Z"/><path class="cls-1" d="M1080.27,102.77q0,7.76-6.59,13.79t-17.81,6q-12.19,0-18.3-4.53a16.1,16.1,0,0,1-6.76-12q7.92,0,12.2-1.4t4.29-3.63q0-2.22-5.57-1.89a46.07,46.07,0,0,0-10.92,2V82.23q0-2.51,4.75-5.81c3.16-2.2,5.23-3.29,6.2-3.29s2.7.65,5.19,2a24.22,24.22,0,0,0,8.53,2.52q-3.6,8.67-6.71,8.69a12.06,12.06,0,0,1-5.46-1.14,6.94,6.94,0,0,0-4.93-.49q-2.6.66-4.57,4.94,8.58-2,13.67.23t5.09,9.07q0,4.89-6.59,9.17.63,1.65,4.42,2.8a35.68,35.68,0,0,0,10.09,1.16q6.77,0,10.8-2a6.81,6.81,0,0,0,4-6.6c0-1.21-1.13-2.33-3.38-3.38s-6.41-.68-12.45,1.08V83.88q0-2.5,6.53-6.63a25.39,25.39,0,0,1,13.78-4.12,39.5,39.5,0,0,1,16.89,3.72q8,3.74,8,7.16v32a6.84,6.84,0,0,1-2,4.29,5.94,5.94,0,0,1-4.62,2.31q-5.31,0-9.23-5.08t-4-8.77q0-2.34,8.25-4.62t8.24-7.68q0-3.66-9.2-8.38t-14.84-4.71a25.17,25.17,0,0,0-8.71,1.48,10.09,10.09,0,0,0-5.8,4.78q8.42-2.64,12.93,1.16T1080.27,102.77Zm20.07,6.43c.69,0,1-.48,1-1.45v-3.86c-1.3,1.21-2.19,2-2.69,2.44s-.52,1-.06,1.75A2,2,0,0,0,1100.34,109.2Z"/><path class="cls-1" d="M1080.64,46.74a19.37,19.37,0,0,1,13.19,4.95,24,24,0,0,1,7.55,13.19q0,1.65-5.64,1.65a90.91,90.91,0,0,0-15.66-1.65,36.84,36.84,0,0,0-10.66,1.65q-3.89,0-5.73-2.18a6.41,6.41,0,0,1-1.88-4.18q0-5.19,4.71-9.3T1080.64,46.74Zm-8.77,13.89a47.61,47.61,0,0,1,8.21-.7,73.64,73.64,0,0,1,14.7,1.72q-.75-2.41-4.58-4.53a19.32,19.32,0,0,0-9.5-2.13,11.08,11.08,0,0,0-6.48,1.66A4.81,4.81,0,0,0,1071.87,60.63Z"/><path class="cls-1" d="M1134.36,118q-4,4.62-6.6,4.62-5.31,0-9.23-5.08t-4-9.76q6.86-.66,15.4-6h.16a9.21,9.21,0,0,0-2.77-1.65q-3.72-1.56-12.79,1.09V82.23q0-2.51,4.25-5.81c2.84-2.2,4.65-3.29,5.44-3.29s2.44.74,4.93,2.24a13.59,13.59,0,0,0,6.81,2.24q-2.67,9-5.45,9a11.29,11.29,0,0,1-5.13-1.14A5.82,5.82,0,0,0,1121,85q-2.09.66-3.08,4.61a15.46,15.46,0,0,1,10.29-.1q4.55,1.72,6.17,5ZM1130,109.2c.69,0,1-.48,1-1.45v-3.86c-1.3,1.21-2.19,2-2.69,2.44s-.52,1-.07,1.75A2,2,0,0,0,1130,109.2Z"/><path class="cls-1" d="M1193.71,88.46V116a6.88,6.88,0,0,1-2,4.29,5.94,5.94,0,0,1-4.62,2.31q-5.31,0-9.24-5.08t-4-8.77q0-2.34,8.24-4.62t8.25-7.68q0-3.66-5.18-7.55c-3.48-2.6-6.45-3.89-8.94-3.89s-5,1.24-7.65,3.72q-6-3.72-10.91-3.72-3.6,0-6.4,3.62a14.67,14.67,0,0,0-2.8,9.24,19,19,0,0,0,2,9.26q2,3.54,6.93,3c3.3-.33,5-1.26,5-2.77a2.66,2.66,0,0,0-.89-2.1,1.12,1.12,0,0,0-1.77.23c-.58.68-1.71,1-3.38,1q-4.68,0-4.68-5.87,0-7.84,6.66-7.85,7.35,0,7.35,11.38,0,18.41-8.87,18.4-12.55,0-12.56-24.73,0-11.88,4.45-18.3t10-6.43a13,13,0,0,1,6.75,1.87,30.55,30.55,0,0,1,5.85,4.56q4.29-6.44,7.75-6.43,4.79,0,9.73,3.72c3,2.27,4.62,4.44,4.91,6.53a23.14,23.14,0,0,1,3.13-5.08q4.15-5.17,7.62-5.17,5.44,0,11.38,4.05t5.93,7.49V116a6.84,6.84,0,0,1-2,4.29,5.9,5.9,0,0,1-4.61,2.31q-5.31,0-9.23-5.08t-4-8.77q0-2.34,8.24-4.62t8.25-7.68q0-3.66-6-7.55T1201.69,85Q1198.49,85,1193.71,88.46Zm-4.33,20.74c.69,0,1-.48,1-1.45v-3.86c-1.3,1.21-2.2,2-2.69,2.44s-.52,1-.07,1.75A2,2,0,0,0,1189.38,109.2Zm28,0c.69,0,1-.48,1-1.45v-3.86c-1.3,1.21-2.2,2-2.69,2.44s-.52,1-.07,1.75A2,2,0,0,0,1217.41,109.2Z"/><path class="cls-1" d="M1180.26,134.33q7.79-2,7.78-2.28c0-.24-1.3-.5-3.82-.79a71.68,71.68,0,0,0-7.89-.43,21.78,21.78,0,0,0-8.4,1.82,36.42,36.42,0,0,0-8.91-1.78,6.26,6.26,0,0,0-4.15,1.12l-1.45.89a4.05,4.05,0,0,0,.72,2.42,2.54,2.54,0,0,0,2.21,1c1,0,1.42-.38,1.42-1.12,0-.53-1-.92-2.9-1.16a15.34,15.34,0,0,1,4.91-.56,11.15,11.15,0,0,1,4.75.89c1.25.6,1.88,1.26,1.88,2a3.26,3.26,0,0,1-1.35,2.34,15.32,15.32,0,0,1-2.84,1.93,8,8,0,0,1-3,.91,17.4,17.4,0,0,1-7.55-2.31c-1.68-1.14-2.52-3.06-2.54-5.74v-1.75q0-2.86,5.17-5.14l5.15-2.31a35.62,35.62,0,0,1,11.31,2.84,17.42,17.42,0,0,1,7.25-2.84,54.63,54.63,0,0,1,9.1,1.49l4,.92a5.73,5.73,0,0,0,3.56-.1L1196,126a25.26,25.26,0,0,1,6.56-1.75,55.57,55.57,0,0,1,9.1,1.47q5.28,1.23,5.28,2.52v9.24a3,3,0,0,1-1.42,2.63,11.43,11.43,0,0,1-4.32,1.39q-2,.16-6-1.37c-2.72-1-4-2.34-4-3.94a8.33,8.33,0,0,1,3.66-1.68l5.18-1.26,2.61-.56-4.09-1a39.87,39.87,0,0,0-8.78-.93,17.28,17.28,0,0,0-7.35,1.82v4.85a2.94,2.94,0,0,1-1.42,2.63,11.3,11.3,0,0,1-4.32,1.39,19,19,0,0,1-5.95-1.42q-4.17-1.48-4.17-4A12.33,12.33,0,0,1,1180.26,134.33ZM1212.58,145q0,4-12.77,4A144.76,144.76,0,0,1,1178,147.7a85.5,85.5,0,0,0-13.21-1.27q-9.3,0-14.08,2.38,1.32-6.41,17.25-6.4a68.32,68.32,0,0,1,19.2,2.37q8,2.39,12.68,2.38,8,0,8-1.88c0-.75-1-1.05-3.16-.89,0,1.14-1.08,1.71-3.23,1.71q-4.76,0-4.75-1.71,0-2.31,8-2.31T1212.58,145Zm-27.37-9.43c0,.55.94,1,2.83,1.41v-2.24Zm24.5,0c0,.55,1,1,2.87,1.41V135Z"/><path class="cls-1" d="M1236.58,91.26q7.62-3.3,18.32-3.3t18.45,4.13q7.76,4.11,7.75,12.33,0,9.08-8.24,13.62a37,37,0,0,1-18.14,4.55q-9.9,0-16.49-3.69t-6.59-12.47q0-5.12,3.29-7.65t10.89-2.57a24.74,24.74,0,0,1,9.06,1.6c2.75,1.06,4.13,2.81,4.13,5.22s-1.57,4.23-4.7,5.41-6.82,1-11.07-.49q-3.91-1.55-4-5.15-2.64,0-2.64,3.63,0,2,3.12,4c2.08,1.32,5.32,2,9.74,2q8.91,0,14.51-2.05t5.61-6.2c0-3.73-2.33-6.53-7-8.37a37.3,37.3,0,0,0-14-2.81,42.26,42.26,0,0,0-10.57,1,26.17,26.17,0,0,0-6.38,2.64V83.35c0-1.52,1.73-3.61,5.21-6.27s6.15-4,8.11-4,4.42,1,7.45,3,5,3,6.07,3,2.74-1,5.11-3,4.27-3,5.67-3,3.61.82,6.66,2.47a18,18,0,0,0,8.48,2.47q-3.57,8.91-7.75,8.91a18.42,18.42,0,0,1-8.1-2.31q-4.56-2.31-5.88-2.31c-.9,0-2.43.86-4.57,2.57s-3.91,2.57-5.29,2.57-3.4-.73-6-2.21-4.29-2.21-5.15-2.21a6.27,6.27,0,0,0-3.43,1.65Q1236.16,86.38,1236.58,91.26Z"/><path class="cls-1" d="M1298.18,90.24a12.29,12.29,0,0,0-7.19-1.09V81q10.4-7.92,13.33-7.91c1.93,0,4.42,1,7.45,3s5,3,6.07,3,2.73-1,5.11-3,4.26-3,5.67-3,3.6.82,6.66,2.47a18,18,0,0,0,8.48,2.47Q1340.19,87,1336,87a18.38,18.38,0,0,1-8.1-2.31c-3-1.54-5-2.31-5.89-2.31s-2.42.86-4.56,2.57-3.91,2.57-5.3,2.57-3.6-.92-6.59-2.77S1300.66,82,1299.8,82a8.38,8.38,0,0,0-3.63,1.26q3.43.25,8.08,4.84Zm-.29,1.52a30.57,30.57,0,0,1,16-4.13q9.13,0,26.55,2.64V118q-4,4.62-6.6,4.62-5.31,0-9.23-5.08t-4-9.76q6.87-.66,15.4-6-15.52-2.55-23.77-2.54T1300,101.32q-4,2.15-4,7.42t7.85,5.28c.94,0,1.56-.58,1.84-1.72q-6.39.17-6.39-4.91t7.12-5.71q7.13-.62,9.33,5a11.32,11.32,0,0,1-1,10.75,10.28,10.28,0,0,1-9.17,5.18q-14.51,0-14.51-16.32Q1291,95.88,1297.89,91.76Zm36.52,16.32a2,2,0,0,0,1.71,1.12c.69,0,1-.48,1-1.45v-3.86c-1.3,1.21-2.19,2-2.69,2.44S1334,107.33,1334.41,108.08Z"/><path class="cls-1" d="M1294.29,137.43q0-5.77,3.63-8.64t10.88-2.9a29.78,29.78,0,0,1,12.83,2.77,22.14,22.14,0,0,1,9.43,8.27q4.13,5.44,6.1,5.45a7.47,7.47,0,0,0,4.95-1.65,4.41,4.41,0,0,1-4.95,4.94,19.33,19.33,0,0,1-7.88-1.51,15,15,0,0,1-5.8-4.59,18.45,18.45,0,0,0-6.9-5.31,19.12,19.12,0,0,0-7.78-1.78q-5.61,0-8.41,1.26t-2.8,3.69q0,4,2.64,4,2.31,0,2.31-4a9.56,9.56,0,0,1,4.94,1,3.4,3.4,0,0,1,1.65,3.1,3.77,3.77,0,0,1-1.25,3.1,5.69,5.69,0,0,1-3.7,1c-3.29,0-5.77-.68-7.42-2A7.67,7.67,0,0,1,1294.29,137.43Z"/><path class="cls-1" d="M1324.79,154.08a6.22,6.22,0,0,1-3.26-.79,3.46,3.46,0,0,1,.28-5.64,10,10,0,0,1,4.63-.86q3.6,0,5.23,1.62a4.94,4.94,0,0,1,1.66,3.46v4.92a5.68,5.68,0,0,1-1.31,3.82q-1.32,1.54-5.25,1.55-6.58,0-7.09-7.75a11.32,11.32,0,0,0,6.61,1.42q4.11-.17,4.11-2.44,0-1.65-1.32-1.65a2,2,0,0,1-1.19,1.75A6.9,6.9,0,0,1,1324.79,154.08Z"/><path class="cls-4" d="M180.23,68.1h82.24c3.86,0,4.6,1,2.12,4-2.67,3.3-2.64,6.73-2.58,10.55.36,23.45-5.76,44.65-21.07,62.5a62.65,62.65,0,0,1-19.36,15.22c-2.1,1.07-2.9,1.71-1.46,4.28,3.69,6.62,3.48,13.39-.79,19.73-1.22,1.81-.82,2.76.49,4.15a76.13,76.13,0,0,1,11.26,14.79,39.13,39.13,0,0,1,5.2,18.53c.05,2.13-.37,3.13-2.83,3.12q-52.53-.23-105-.2c-2.29,0-2.51-.79-2.48-2.88.16-12.58,6.3-22.3,14-31.15,2.49-2.84,3.55-4.86,1.37-8.75-3-5.27-2.47-11.32,0-16.79,1.28-2.83.41-3.75-1.82-5-9-5.17-17.17-11.48-23.75-19.76-8.27-10.4-12.16-22.64-14.12-35.68a213.15,213.15,0,0,1-2-25.86,4.82,4.82,0,0,0-2-4.19,11.64,11.64,0,0,1-2.17-2.26,3.72,3.72,0,0,1-.65-3.69c.5-1.12,1.85-.53,2.8-.53q41.3,0,82.59,0Z"/><path class="cls-2" d="M138.09,154.8c-24.44-15.08-38.2-40.78-30-74.11a63.15,63.15,0,0,1,7.66,8.59,39,39,0,0,1,8.69,25.21,60.84,60.84,0,0,0,12.23,38C137,152.91,137.26,153.42,138.09,154.8Z"/><path class="cls-2" d="M224.68,153.26c3.58-5.42,7-10.94,9.26-17.15A54.44,54.44,0,0,0,237.1,117c-.13-11.64,3.4-21.85,11.09-30.47,1.62-1.82,3.28-3.62,5.19-5.74,1.65,3.63,1.55,7.29,2.21,10.76,4.65,24.7-14.88,52.76-29.5,61.75A1,1,0,0,1,224.68,153.26Z"/><path class="cls-2" d="M210.12,159.3c2.36-4,4.67-7.46,6.62-11.16,4.52-8.55,5.84-17.82,5.43-27.45a122.77,122.77,0,0,1-.11-12.43c.7-11.17,6.37-19.7,14-27.19,1.21,1,.87,2.29.85,3.36-.12,6.25-.08,12.48-1.91,18.6-2.43,8.11-1,16.74-2.72,25-2.49,11.84-9,21.33-16.5,30.26C214.27,160.09,212.23,159,210.12,159.3Z"/><path class="cls-2" d="M151.51,159.06c-3.35,1.06-5.5-.33-7.55-3-6.31-8.36-12.06-17-14.4-27.52-1.36-6.18-.82-12.51-1.66-18.72-.28-2.11-.19-4.37-.93-6.29-2.77-7.21-1.72-14.69-2-22.87,6.26,5.69,10.74,11.83,13.24,19.43,1.58,4.8,1.56,9.77,1.5,14.75-.07,5.56-.46,11.14.2,16.69,1.09,9.13,4.69,17.2,9.84,24.63C150.41,157,151.41,157.78,151.51,159.06Z"/><path class="cls-2" d="M142.57,80.15a32.07,32.07,0,0,1,11.91,17.19,3.33,3.33,0,0,1-.25,2.34,60.26,60.26,0,0,0-3.37,25.45c.16,2.18-.57,4.42-.8,6.63-.92,8.59.87,16.45,6,23.39.9,1.22,1.73,2.5,2.61,3.78-1.69,1-2.32-.37-3.06-1.28-8.62-10.72-13.24-22.86-12.28-36.95a70.77,70.77,0,0,0-2-23.87C139.87,91.56,141.25,85.88,142.57,80.15Z"/><path class="cls-2" d="M203.09,159c.92-1.26,1.71-2.42,2.57-3.51a29.23,29.23,0,0,0,6-24.63,26,26,0,0,1-.28-7,52.58,52.58,0,0,0-3.17-23.35,7.78,7.78,0,0,1,.11-6.1A33,33,0,0,1,219.46,80c.67,6.63,2.5,12.65.49,18.9-1.84,5.73-1.79,11.66-1.61,17.6.27,8.9.36,17.75-3.25,26.18a66.55,66.55,0,0,1-9,15.05C205.46,158.5,205,159.55,203.09,159Z"/><path class="cls-5" d="M101.2,72H259.61c-.38,2-1.32,2.74-3.52,2.8-17,.46-34,.08-51,0-33.13-.12-66.27,0-99.4,0C103.73,74.8,102.05,74.73,101.2,72Z"/><path class="cls-5" d="M163.16,148.61c-5.4-6.4-7.92-14.11-8.82-22.28-1.43-13.12.66-25.54,8.91-36.18,9.93-12.83,25.74-12.79,35.71,0,12.41,15.9,12.44,43.33.07,58.48-.73.11-.94-.36-1-1,0-1.38.87-2.42,1.48-3.55,7.88-14.55,8.31-29.54,2.17-44.77a27.41,27.41,0,0,0-9.19-12.21c-9-6.54-19.73-5-26.77,3.79-6.14,7.64-8.75,16.59-9.21,26.25A47.94,47.94,0,0,0,163.21,145a5.4,5.4,0,0,1,1,2.63C164.09,148.21,163.89,148.7,163.16,148.61Z"/><path class="cls-6" d="M130,220.14c.7-1.53,2-.88,3-.88q48.15,0,96.29.07H231c.62,0,1.2.22,1.24.92.08,1.09-.78.94-1.43,1s-1.38,0-2.07,0q-47.81-.19-95.6-.42C132.13,220.8,130.9,221.33,130,220.14Z"/><path class="cls-7" d="M211,188.78a4.63,4.63,0,0,1,5.34,1.54c5.92,6.65,11.7,13.36,14.61,22.15.92,2.77.84,4-2.53,3.81-4.77-.25-4.74-.06-5.26-5-.67-6.5-3.93-11.76-7.72-16.75C214.08,192.69,212.65,190.86,211,188.78Z"/><path class="cls-8" d="M168.65,188.24c-1.22,2-2,3.33-2.77,4.59-4,6.31-7,13-7.19,20.73-.11,4.26-3.14,2.38-5,2.53-2.77.24-1.55-2.11-1.46-3.29.74-9.17,6-16.17,10.84-23.36C164.32,187.59,166.26,188.88,168.65,188.24Z"/><path class="cls-9" d="M193.49,188.82c3.6-1.15,5.36.42,7,3.16,3.39,5.62,7.32,10.92,8.55,17.64.15.81.31,1.62.38,2.44.32,4-1.46,5.31-5.26,4.14-.92-.28-1-.83-1-1.55-.09-9.3-4-17.09-9-24.5C194,189.78,193.78,189.36,193.49,188.82Z"/><path class="cls-7" d="M150.8,188.54c-2.52,3.43-4.8,6.49-7,9.59a27.34,27.34,0,0,0-5.35,15c-.11,2.5-.83,3.11-3.18,3.05-5.42-.16-5.52-.1-3.58-5.4,3.06-8.35,8.81-14.81,14.34-21.42C147.26,187.89,148.87,188.64,150.8,188.54Z"/><path class="cls-8" d="M159,188.59c-1.75,2.74-3.32,5.06-4.76,7.46-3.23,5.39-5.69,11.1-5.7,17.57,0,3.81-2.65,2.29-4.39,2.52-2.6.35-1.89-1.61-1.86-3a20.47,20.47,0,0,1,3.63-11.28c2.84-4.15,6-8.07,8.93-12.16C155.88,188.21,157.18,188.51,159,188.59Z"/><path class="cls-8" d="M203.22,188.7c1.52-.4,2.71-.29,3.74,1.07,3.19,4.2,6.62,8.2,9.35,12.74a22.88,22.88,0,0,1,3.08,9c.69,5.32,1.15,4.71-4.39,4.75-1,0-1.49-.27-1.51-1.38-.2-9.85-5-17.76-10.21-25.48C203.22,189.27,203.25,189.12,203.22,188.7Z"/><path class="cls-8" d="M209.82,163.21c5.53-.48,9,3.64,9.1,10.53a15.69,15.69,0,0,1-3.5,9.76,3.19,3.19,0,0,1-4,1.05c-1.62-.77,0-2.09.31-3C214,175.28,212.91,169.34,209.82,163.21Z"/><path class="cls-8" d="M151.27,184.4c-3.63,1.11-5.2-.55-6.45-3.41-2.48-5.67-1.71-11.05.81-16.37.56-1.18,4.59-2,5.54-1.25.66.52.27,1.07,0,1.55C148,171.37,148.08,177.83,151.27,184.4Z"/><path class="cls-7" d="M180.83,163.49c4.75,6.46,5.19,13.69,1.49,19.32-1.15,1.76-1.78,1.63-2.88,0C175.7,177.13,176.1,170.43,180.83,163.49Z"/><path class="cls-5" d="M176.28,188.79c-3.59,6.08-7.32,11.93-8.57,18.92a35.45,35.45,0,0,0-.68,6c0,2-.77,2.53-2.68,2.57-2.26,0-2-1.31-1.93-2.74a35.4,35.4,0,0,1,5.59-16.9c1.22-2,2.58-3.92,3.68-6C172.65,188.81,173.88,188,176.28,188.79Z"/><path class="cls-8" d="M185.52,188.68c1.52-.15,2.86-.69,3.74.7,4.67,7.43,9.82,14.65,10.05,24.07,0,1.44.5,2.85-1.82,2.8-1.72,0-2.65-.15-2.68-2.39-.12-8.59-3.64-16-8.12-23C186.31,190.3,186,189.65,185.52,188.68Z"/><path class="cls-10" d="M193.54,184.38c3.92-6.94,4.38-13.92.94-21,3-1.14,4.38.14,5.28,2.79a22,22,0,0,1,.12,14.5C198.84,183.81,197.4,185.67,193.54,184.38Z"/><path class="cls-10" d="M167.24,163.48a21.92,21.92,0,0,0,.81,20.64c-4.19,1.11-4.41,1-5.88-2.88a21.67,21.67,0,0,1-.06-15.2C163,163.35,164.51,162.56,167.24,163.48Z"/><path class="cls-11" d="M176.15,163.42c-3.29,6.5-4.24,13-.8,19.73.27.53.55,1.22-.21,1.46a2.29,2.29,0,0,1-2.78-.85c-2.48-3.83-4.14-7.94-3.53-12.66a29.8,29.8,0,0,1,1.1-4.09C170.78,164,172.42,162.24,176.15,163.42Z"/><path class="cls-5" d="M186,163.32c3-1,4.61.3,5.72,3.19,2.32,6,1.32,11.48-1.94,16.77-.81,1.32-2,1.92-3.17,1.29-1.45-.81.16-1.8.48-2.57a19.64,19.64,0,0,0,0-15.43C186.63,165.52,185.75,164.6,186,163.32Z"/><path class="cls-12" d="M202.76,163.33a2.29,2.29,0,0,1,3.14.88c3.83,4.95,4.27,13.29,1,18.75a3,3,0,0,1-3.05,1.77c-1-.09-1.51-.23-1-1.47C205.59,176.62,205.3,169.94,202.76,163.33Z"/><path class="cls-10" d="M152.67,174.64c-.19-3.69,1.2-6.88,2.94-10,.64-1.14,1.65-1.95,2.81-1.36s0,1.71-.21,2.45a24.83,24.83,0,0,0,.16,16.26c.28.86,1.46,2-.07,2.59a2.34,2.34,0,0,1-3-1A16.31,16.31,0,0,1,152.67,174.64Z"/><path class="cls-13" d="M180.78,190.86a19.17,19.17,0,0,1,1.63,8.12c.13,5,0,10-.09,15,0,1,.26,2.23-1.39,2.26s-1.31-1.3-1.31-2.25C179.63,206.32,178.37,198.64,180.78,190.86Z"/><path class="cls-14" d="M185.94,198.74c3.49,4.51,4.86,9.61,5.12,15.1.1,1.92-.55,2.49-2.33,2.39-1.54-.09-2.91.19-2.84-2.26C186,208.9,185.94,203.82,185.94,198.74Z"/><path class="cls-8" d="M175.7,199c0,4.84-.09,9.67,0,14.51.06,2.14-.51,2.84-2.68,2.8s-2.49-.79-2.38-2.7A26.35,26.35,0,0,1,175.7,199Z"/><path class="cls-15" d="M198.32,147.8l.71.81c-9.67,13.31-26.23,13.31-35.87,0l.69-.81c1.91-.13,2.77,1.47,3.89,2.57,8.1,8,18.59,8,26.7,0C195.55,149.27,196.41,147.67,198.32,147.8Z"/><path class="cls-16" d="M154.7,140.29c2.8,7.58,7.64,13.53,14.66,18.58-3.59.66-5.88,1-7.81-2.31-2.94-5-6.85-9.49-7.53-15.66C153.79,140.16,154.05,140,154.7,140.29Z"/><path class="cls-17" d="M208.14,140.86c-.66,7.33-5.6,12.28-9.52,17.74-1.15,1.6-3.37.53-6.27.66,7.3-5.3,12.35-11.22,15.09-19C208.11,139.91,208.29,140.16,208.14,140.86Z"/><path class="cls-5" d="M240.48,90c0-3.66.12-6.47,0-9.27-.1-1.65.46-2,1.9-2,2.26.09,4.53,0,7.32,0C246.59,82.56,243.81,86,240.48,90Z"/><path class="cls-5" d="M112.16,79.16c.49-.27.7-.5.85-.47,2.79.66,6.75-1.89,8.21,1.33,1.11,2.43-.14,6-.38,9.59-1.49-1.92-2.74-3.64-4.09-5.27S113.82,81,112.16,79.16Z"/><path class="cls-5" d="M129.48,79.15c.16-.2.22-.35.28-.35,3,.07,7.23-1.51,8.65.67,1.23,1.88-.63,5.9-1.17,9.2Z"/><path class="cls-5" d="M232.57,78.8l-8,9.84c-.52-3.2-1-6-1.4-8.78-.2-1.44,1-1,1.64-1C227.19,78.76,229.57,78.8,232.57,78.8Z"/><path class="cls-18" d="M157.77,91.66c.24-3.84.46-7.24.68-10.69C164,83.6,163.93,84.77,157.77,91.66Z"/><path class="cls-19" d="M214.59,78.91a53.44,53.44,0,0,0-6.91,7.9,12.67,12.67,0,0,1-.31-1.39C207,78.58,207,78.58,214.59,78.91Z"/><path class="cls-20" d="M153.91,86.35l-6.11-7.11C156.51,78,155.39,78,153.91,86.35Z"/><path class="cls-21" d="M203.89,91.28c-1-1.32-1.55-2-2.1-2.73-3.41-4.29-3.42-4.29,1.24-7.89A49,49,0,0,1,203.89,91.28Z"/><path class="cls-22" d="M163,78.82h8.43C166.4,83,166.4,83,163,78.82Z"/><path class="cls-23" d="M198.4,79c-2.69,5.75-5.11,1-7.6,0Z"/><path class="cls-24" d="M208.14,140.86l-.7-.56c.24-.62.49-1.24.8-2A1.78,1.78,0,0,1,208.14,140.86Z"/><path class="cls-25" d="M154.7,140.29l-.68.61a2.13,2.13,0,0,1-.38-2.5C154.42,138.8,154.52,139.57,154.7,140.29Z"/><path class="cls-4" d="M198.32,147.8c-1.47,1.47-2.86,3-4.42,4.39-8.16,7.14-18.6,6.76-26.67-.92-1.17-1.11-2.26-2.31-3.38-3.47-10.13-16.08-11-32.85-3.47-50.21a29.48,29.48,0,0,1,5.42-8.16C175.31,79,189,79.71,197.73,91c11,14.24,12,38.32,2.23,54.08Z"/><path class="cls-2" d="M158.77,118.07c.18-9.13,2.46-18.65,9.41-26.35,7.87-8.72,17.95-8.63,25.9.06,5.15,5.63,7.78,12.56,8.77,20.06,1.59,12.09.22,23.67-7.16,33.77-8.27,11.3-20.94,11.24-29.27-.08C160.69,137.74,158.71,128.76,158.77,118.07Z"/><path class="cls-4" d="M184.39,146.66c-6.52-1.86-12.63-11-11.92-17,.46-3.85,2.71-6.1,6.09-7.3.79-.29,1.79-.46,1.72-1.39-.1-1.5-1.43-.8-2.19-.82-3.33-.09-6.67-.15-10,0-2.14.1-2.06-1.14-2.09-2.68s.19-2.43,2-2.35c3.1.13,6.22.11,9.32,0,1.15,0,3.21.85,2.92-1.64-.26-2.17,1.33-5.32-2.4-6-2-.38-4.1-.51-6.12-.89-2.35-.43-3.26-1.7-1.74-4,2.49-3.73,6-6.52,9-9.76.89-1,1.74-.17,2.44.35a36.18,36.18,0,0,0,8.91,5.14c1.52.56,2,1.56.56,2.83-3.53,3.16-6.3,4.56-9.26-.25-.43-.69-.71-2-2-.93-1.09,1-.71,1.84.18,2.67.09.08.17.19.27.22,4.89,1.62,4.76,5.66,4.37,9.76-.2,2,.53,2.7,2.48,2.56,2.29-.16,4.61.08,6.9-.07,1.82-.12,2.35.52,2.36,2.39s-.49,2.8-2.51,2.64-4.17.18-6.21-.09c-2.74-.36-3.2.85-3.15,3.36C184.48,131.1,184.39,138.79,184.39,146.66Z"/><path class="cls-26" d="M180.45,137.76c-2-2.37-3.32-4.12-3.53-6.46-.14-1.55.41-2.47,2-2.62,2-.19,1.46,1.31,1.49,2.36C180.49,133,180.45,135,180.45,137.76Z"/></svg>